<?xml version="1.0" encoding="utf-8"?>
<!-- Generator: Adobe Illustrator 21.1.0, SVG Export Plug-In . SVG Version: 6.00 Build 0)  -->
<svg version="1.1" id="Layer_1" xmlns="http://www.w3.org/2000/svg" xmlns:xlink="http://www.w3.org/1999/xlink" x="0px" y="0px"
	 viewBox="0 0 120 120" style="enable-background:new 0 0 120 120;" xml:space="preserve">
<style type="text/css">
	.st0{fill:#37474F;}
	.st1{fill:#FFFFFF;}
	.st2{fill:none;stroke:#000000;stroke-width:2;stroke-miterlimit:10;}
	.st3{fill:none;stroke:#000000;stroke-width:2;stroke-linecap:round;stroke-miterlimit:10;}
	.st4{fill:#FFFFFF;stroke:#000000;stroke-width:2;stroke-miterlimit:10;}
</style>
<path id="face_back" class="st0" d="M80.22,43.6v8.96c-1.67,4.44-4.47,8.16-8.41,11.17s-8.85,4.51-14.73,4.51
	c-6.65,0-11.91-2.54-15.78-7.64c-3.87-5.09-5.8-11.45-5.8-19.1c0-7.83,2.07-14.5,6.21-20.02c4.14-5.52,9.4-8.28,15.78-8.28
	c7.06,0,12.61,2.51,16.66,7.53C78.2,25.75,80.22,33.38,80.22,43.6z"/>
<path id="band" class="st1" d="M84.38,45.37C67,51,47,56,31,44c-3-2,0-8-1-12c18,4,37,2,55-1c-2,2-1,5-0.58,7.28
	C84.38,41.88,84.38,45.37,84.38,45.37z"/>
<g id="_x39_">
	<path class="st0" d="M55.66,109.44c-3.6,0-7.26-0.35-10.87-1.04c-3.68-0.7-7.21-1.79-10.5-3.23l-1.13-0.49l2.16-9.82l1.7,0.8
		c2.96,1.4,5.92,2.41,8.8,3.01c2.91,0.61,6.22,0.92,9.84,0.92c7.26,0,12.77-2.69,16.84-8.21c3.91-5.3,5.99-13.52,6.2-24.46
		c-2.11,2.49-4.61,4.54-7.46,6.12c-4.23,2.35-9,3.55-14.17,3.55c-9.41,0-17.1-3.31-22.87-9.84c-5.72-6.47-8.63-14.97-8.63-25.25
		c0-10.31,3.02-19.09,8.98-26.08C40.58,8.35,48.18,4.77,57.15,4.77c10.04,0,18.14,3.34,24.08,9.94c5.91,6.54,8.91,16.47,8.91,29.5
		v20.7c0,14.74-3.12,25.94-9.27,33.3C74.65,105.66,66.17,109.44,55.66,109.44z M57.49,14.7c-5.94,0-10.7,2.51-14.58,7.68
		C38.99,27.61,37,34.04,37,41.5c0,7.28,1.85,13.4,5.49,18.19c3.6,4.74,8.37,7.05,14.59,7.05c5.52,0,10.17-1.41,13.82-4.2
		c3.62-2.76,6.25-6.21,7.82-10.26V43.6c0-9.83-1.93-17.21-5.74-21.93C69.2,16.98,64.13,14.7,57.49,14.7z"/>
	<path class="st1" d="M57.15,6.27c9.64,0,17.3,3.15,22.97,9.44c5.68,6.29,8.52,15.79,8.52,28.5v20.7c0,14.44-2.97,25.22-8.92,32.34
		c-5.95,7.13-13.97,10.69-24.06,10.69c-3.49,0-7.02-0.33-10.59-1.01c-3.58-0.68-6.97-1.72-10.18-3.13l1.49-6.78
		c3.08,1.45,6.12,2.49,9.13,3.12c3.01,0.63,6.39,0.95,10.15,0.95c7.69,0,13.71-2.94,18.05-8.82c4.34-5.89,6.51-14.96,6.51-27.22
		V62.2c-2.44,4.12-5.67,7.3-9.7,9.53c-4.03,2.24-8.51,3.36-13.44,3.36c-9,0-16.25-3.11-21.75-9.33c-5.5-6.22-8.25-14.31-8.25-24.26
		c0-10,2.88-18.37,8.62-25.11C41.45,9.64,48.6,6.27,57.15,6.27 M57.08,68.24c5.88,0,10.79-1.5,14.73-4.51
		c3.94-3.01,6.74-6.73,8.41-11.17V43.6c0-10.22-2.02-17.85-6.07-22.87c-4.05-5.02-9.6-7.53-16.66-7.53
		c-6.38,0-11.64,2.76-15.78,8.28C37.57,27,35.5,33.67,35.5,41.5c0,7.65,1.93,14.01,5.8,19.1C45.17,65.7,50.43,68.24,57.08,68.24
		 M57.15,3.27c-9.43,0-17.42,3.76-23.73,11.17c-6.2,7.27-9.34,16.38-9.34,27.06c0,10.66,3.03,19.49,9,26.25
		c6.07,6.86,14.14,10.34,24,10.34c5.42,0,10.44-1.26,14.9-3.74c1.83-1.01,3.52-2.21,5.06-3.58c-0.57,8.69-2.49,15.31-5.75,19.72
		c-3.77,5.11-8.89,7.6-15.63,7.6c-3.52,0-6.73-0.3-9.54-0.89c-2.76-0.58-5.61-1.55-8.47-2.9l-3.4-1.6l-0.81,3.67l-1.49,6.78
		l-0.53,2.4l2.25,0.99c3.39,1.49,7.03,2.61,10.83,3.33c3.7,0.71,7.45,1.06,11.15,1.06c10.98,0,19.85-3.96,26.36-11.77
		c6.38-7.64,9.62-19.16,9.62-34.26v-20.7c0-13.42-3.13-23.68-9.29-30.51C76.11,6.78,67.63,3.27,57.15,3.27L57.15,3.27z M57.08,65.24
		c-5.72,0-10.1-2.11-13.39-6.45C40.2,54.19,38.5,48.54,38.5,41.5c0-7.23,1.84-13.19,5.61-18.22c3.57-4.76,7.95-7.08,13.38-7.08
		c6.16,0,10.84,2.1,14.33,6.41c3.59,4.45,5.4,11.51,5.4,20.99V52c-1.5,3.72-3.87,6.78-7.23,9.35
		C66.56,63.97,62.34,65.24,57.08,65.24L57.08,65.24z"/>
</g>
<g id="right_eye">
	<path class="st2" d="M62.83,43.49c0,1.8-1.4,3.31-3.12,3.38c-1.71,0.07-3.1-1.32-3.1-3.11s1.39-3.3,3.1-3.38
		C61.43,40.3,62.83,41.69,62.83,43.49z"/>
	<line class="st3" x1="55.22" y1="40.53" x2="68" y2="35.08"/>
</g>
<g id="left_eye">
	<path class="st4" d="M48.94,43.49c0,1.8-1.4,3.32-3.12,3.39c-1.71,0.07-3.1-1.32-3.1-3.11s1.39-3.31,3.1-3.39
		C47.54,40.29,48.94,41.69,48.94,43.49z"/>
	<line class="st3" x1="38" y1="35.08" x2="50.32" y2="40.53"/>
</g>
</svg>
