<svg id="Layer_1" data-name="Layer 1" xmlns="http://www.w3.org/2000/svg" viewBox="0 0 67.56 107.67"><defs><style>.cls-1{fill:#37474f;}.cls-2,.cls-5{fill:#fff;}.cls-3,.cls-4{fill:none;}.cls-3,.cls-4,.cls-5{stroke:#000;stroke-miterlimit:10;}.cls-3,.cls-5{stroke-width:2px;}.cls-4{stroke-linecap:round;stroke-width:1.5px;}</style></defs><title>asdfUntitled-1</title><path id="face_back" data-name="face back" class="cls-1" d="M80.22,43.6v8.96a24.872,24.872,0,0,1-8.41,11.17q-5.91,4.515-14.73,4.51A18.746,18.746,0,0,1,41.3,60.6q-5.8-7.635-5.8-19.1,0-11.745,6.21-20.02T57.49,13.2q10.59,0,16.66,7.53T80.22,43.6Z" transform="translate(-24.08 -3.27)"/><path id="band" class="cls-2" d="M84.378,45.369C67,51,47,56,31,44c-3-2,0-8-1-12,18,4,37,2,55-1-2,2-1,5-.579,7.275C84.385,41.877,84.378,45.369,84.378,45.369Z" transform="translate(-24.08 -3.27)"/><g id="_9" data-name="9"><path class="cls-1" d="M55.66,109.44A58.183,58.183,0,0,1,44.789,108.4a48.779,48.779,0,0,1-10.5-3.23l-1.125-.494,2.157-9.817,1.7.8a40.015,40.015,0,0,0,8.8,3.01,48.463,48.463,0,0,0,9.843.918c7.256,0,12.766-2.686,16.843-8.211,3.905-5.3,5.988-13.521,6.2-24.456a26.574,26.574,0,0,1-7.456,6.12A28.794,28.794,0,0,1,57.08,76.59c-9.407,0-17.1-3.31-22.874-9.837C28.482,60.28,25.58,51.784,25.58,41.5c0-10.312,3.021-19.088,8.978-26.083C40.577,8.353,48.178,4.77,57.15,4.77c10.039,0,18.141,3.343,24.084,9.936,5.909,6.544,8.905,16.471,8.905,29.5v20.7c0,14.737-3.118,25.942-9.269,33.3C74.653,105.662,66.171,109.44,55.66,109.44ZM57.49,14.7c-5.935,0-10.7,2.512-14.58,7.68C38.988,27.608,37,34.042,37,41.5c0,7.276,1.849,13.4,5.494,18.192,3.6,4.743,8.37,7.048,14.586,7.048,5.521,0,10.17-1.414,13.818-4.2A23.536,23.536,0,0,0,78.72,52.283V43.6c0-9.832-1.93-17.209-5.736-21.928C69.2,16.98,64.13,14.7,57.49,14.7Z" transform="translate(-24.08 -3.27)"/><path class="cls-2" d="M57.15,6.27q14.46,0,22.97,9.44t8.52,28.5v20.7q0,21.66-8.92,32.34T55.66,107.94a56.48,56.48,0,0,1-10.59-1.01,47.028,47.028,0,0,1-10.18-3.13l1.49-6.78a41.307,41.307,0,0,0,9.13,3.12,49.7,49.7,0,0,0,10.15.95q11.535,0,18.05-8.82t6.51-27.22V62.2a25.489,25.489,0,0,1-9.7,9.53,27.192,27.192,0,0,1-13.44,3.36q-13.5,0-21.75-9.33T27.08,41.5q0-15,8.62-25.11Q44.325,6.265,57.15,6.27m-.07,61.97q8.82,0,14.73-4.51a24.872,24.872,0,0,0,8.41-11.17V43.6q0-15.33-6.07-22.87T57.49,13.2q-9.57,0-15.78,8.28T35.5,41.5q0,11.475,5.8,19.1a18.746,18.746,0,0,0,15.78,7.64m.07-64.97c-9.432,0-17.417,3.76-23.734,11.175-6.2,7.274-9.336,16.377-9.336,27.055,0,10.661,3.029,19.492,9,26.247,6.069,6.863,14.142,10.343,24,10.343a30.279,30.279,0,0,0,14.9-3.738,28.013,28.013,0,0,0,5.064-3.582c-.569,8.689-2.495,15.307-5.747,19.72-3.774,5.113-8.889,7.6-15.635,7.6a46.958,46.958,0,0,1-9.535-.886,38.524,38.524,0,0,1-8.467-2.9l-3.4-1.6-.807,3.671-1.49,6.78-.528,2.4,2.251.989a50.279,50.279,0,0,0,10.827,3.331,59.751,59.751,0,0,0,11.15,1.063c10.977,0,19.847-3.959,26.363-11.768C88.4,91.537,91.64,80.009,91.64,64.91V44.21c0-13.416-3.127-23.682-9.293-30.511C76.109,6.78,67.631,3.27,57.15,3.27Zm-.07,61.97a15.768,15.768,0,0,1-13.39-6.453C40.2,54.193,38.5,48.539,38.5,41.5c0-7.227,1.835-13.187,5.61-18.22,3.573-4.764,7.95-7.08,13.38-7.08,6.158,0,10.843,2.1,14.325,6.414,3.586,4.445,5.4,11.506,5.4,20.986V52a21.771,21.771,0,0,1-7.231,9.349c-3.43,2.62-7.652,3.894-12.909,3.894Z" transform="translate(-24.08 -3.27)"/></g><g id="right_eye" data-name="right eye"><path class="cls-3" d="M59.99,43.214a2.756,2.756,0,0,1-2.563,2.781A2.48,2.48,0,0,1,54.88,43.44a2.758,2.758,0,0,1,2.548-2.78A2.478,2.478,0,0,1,59.99,43.214Z" transform="translate(-24.08 -3.27)"/><line class="cls-4" x1="29.656" y1="38.336" x2="38.514" y2="34.61"/></g><g id="left_eye" data-name="left eye"><path class="cls-5" d="M48.573,43.211A2.762,2.762,0,0,1,46.01,46a2.478,2.478,0,0,1-2.547-2.555,2.764,2.764,0,0,1,2.547-2.786A2.476,2.476,0,0,1,48.573,43.211Z" transform="translate(-24.08 -3.27)"/><line class="cls-4" x1="16.326" y1="34.61" x2="25.629" y2="38.336"/></g></svg>