<svg xmlns="http://www.w3.org/2000/svg" xml:space="preserve" style="fill-rule:evenodd;clip-rule:evenodd;stroke-miterlimit:10" viewBox="0 0 294.15 468.78"><ellipse cx="25.62" cy="28.51" rx="16.48" ry="21.06" style="fill:#37474f" transform="matrix(6.409 0 0 5.95 -14.8 -5.61)"/><path d="M39.2 38.55c1.14-1.16 1.5-9.3.82-11.39-9.52-2.74-19.69-4.45-28.76-.8-1.06 1.5-.93 10.2.08 11.28 9.22-1.06 18.65-.38 27.86.9Z" style="fill:#fff;fill-rule:nonzero" transform="matrix(5.804 0 0 -5.804 .03 350.29)"/><path d="M25.02 28.12c1.1.04 1.97.92 2 2.01a1.86 1.86 0 0 1-2 1.82 2.07 2.07 0 0 1-2-2 1.86 1.86 0 0 1 2-1.83Z" style="fill:none;fill-rule:nonzero;stroke:#000;stroke-width:1.5px" transform="matrix(.26 5.799 -5.799 .26 312.9 21.52)"/><path d="M21.96 27.36h7.2" style="fill:none;fill-rule:nonzero;stroke:#000;stroke-width:1.13px;stroke-linecap:square" transform="matrix(5.35 -2.252 2.252 5.35 -49.95 70.03)"/><path d="M16.46 28.12c1.09.04 1.97.93 2 2.02a1.86 1.86 0 0 1-2 1.82 2.07 2.07 0 0 1-2-2 1.86 1.86 0 0 1 2-1.84Z" style="fill:none;fill-rule:nonzero;stroke:#000;stroke-width:1.5px" transform="matrix(.266 5.798 -5.798 .266 265.33 71)"/><path d="M11.98 27.36h7.51" style="fill:none;fill-rule:nonzero;stroke:#000;stroke-width:1.13px;stroke-linecap:square" transform="matrix(5.388 2.16 -2.16 5.388 65.67 -22.55)"/><path d="M140.41 473.44a260.14 260.14 0 0 1-48.53-4.64 219.3 219.3 0 0 1-47.13-14.5l-4.9-2.16a6.56 6.56 0 0 1-3.77-7.4l9.4-42.75a6.56 6.56 0 0 1 9.2-4.53l7.41 3.5a204.35 204.35 0 0 0 78.29 16.47h.07c29.29 0 51.58-10.78 68.04-33.1 14.3-19.4 22.55-48.2 25-85.73a122.04 122.04 0 0 1-22.01 15.56h-.02a131.84 131.84 0 0 1-64.85 16.26c-42.99 0-78.1-15.2-104.5-45.02-25.9-29.31-39.19-67.72-39.19-114.29 0-46.58 13.74-86.2 40.66-117.8C71.09 21 105.88 4.66 146.9 4.66c45.76 0 82.64 15.37 109.73 45.42 26.61 29.48 40.44 74.1 40.44 132.82V273c0 66.07-14.3 116.2-41.86 149.18-28.33 33.95-66.93 51.26-114.8 51.26Zm-83.89-60.6-6.47 29.46a206.17 206.17 0 0 0 44.26 13.6h.02c15.2 2.92 30.64 4.4 46.1 4.42 43.63 0 78.9-15.6 104.72-46.55 25.98-31.08 38.8-78.5 38.8-140.76V182.9c0-54.74-12.24-96.55-37.05-124.03-24.66-27.35-58.34-41.1-100-41.1-37.06 0-68.47 14.85-93.34 44.04-24.95 29.3-37.52 66.1-37.52 109.3 0 43 11.98 78.54 35.9 105.6 23.9 27 55.76 40.59 94.67 40.59h.08c20.4.24 40.56-4.81 58.45-14.63a108.73 108.73 0 0 0 30.6-25.12 6.56 6.56 0 0 1 11.57 4.35c-.94 49.32-10.64 86.33-28.27 110.22-19.03 25.8-44.7 38.41-78.56 38.42-14.82.14-29.6-1.24-44.16-4.1l-.12-.04a182.19 182.19 0 0 1-39.68-13.56ZM148.4 47.9c31.12 0 54.82 10.78 72.56 32.77 17.28 21.46 26.41 54.9 26.41 99.58v37.8c0 .81-.15 1.63-.45 2.4a109.16 109.16 0 0 1-36.19 47.48c-16.93 12.94-38.48 19.62-64.12 19.62-29.28 0-51.74-10.91-68.73-33.28-16.65-21.9-25.24-49.88-25.24-83.16 0-34.02 9.14-63.32 27.03-87.17C97.94 59.6 120.44 47.9 148.4 47.9Zm0 13.11c-23.74 0-42.73 10.15-58.24 30.8-16.25 21.68-24.4 48.38-24.4 79.3 0 30.07 7.52 55.43 22.57 75.23 14.39 18.95 33.47 28.09 58.28 28.09 22.43 0 41.36-5.61 56.17-16.93l.05-.04a96.04 96.04 0 0 0 31.43-40.68v-36.53c0-40.9-7.7-71.7-23.51-91.34-15.22-18.87-35.65-27.9-62.35-27.9Z" style="fill:#fff" transform="matrix(1 0 0 1 -2.92 -4.66)"/><path d="M23.68 1.13c-2.73 0-5.46.26-8.15.78-2.7.5-5.35 1.32-7.87 2.42l-.85.37 1.62 7.36 1.28-.6c2.1-1 4.32-1.76 6.6-2.26 2.43-.48 4.9-.7 7.38-.68 5.44 0 9.57 2.01 12.63 6.16 2.93 3.97 4.5 10.14 4.65 18.34a19.86 19.86 0 0 0-5.6-4.6 21.6 21.6 0 0 0-10.62-2.65c-7.05 0-12.82 2.48-17.16 7.37C3.3 38 1.13 44.37 1.13 52.08c0 7.74 2.26 14.32 6.73 19.56 4.51 5.3 10.21 7.99 16.94 7.99 7.53 0 13.61-2.5 18.07-7.45 4.43-4.91 6.67-12.36 6.67-22.13V34.53c0-11.06-2.33-19.46-6.95-24.98-4.66-5.59-11.02-8.43-18.9-8.43Zm1.38 71.05c-4.45 0-8.03-1.88-10.94-5.76-2.94-3.92-4.43-8.74-4.43-14.34 0-5.45 1.39-10.05 4.12-13.64 2.7-3.56 6.28-5.29 10.94-5.29 4.14 0 7.63 1.06 10.36 3.15a17.68 17.68 0 0 1 5.87 7.7v6.5c0 7.38-1.45 12.91-4.3 16.45-2.84 3.52-6.64 5.23-11.62 5.23Z" style="fill:#37474f;fill-rule:nonzero" transform="matrix(5.804 0 0 -5.804 .03 468.75)"/></svg>