<svg version="1" xmlns="http://www.w3.org/2000/svg" width="933.333" height="933.333" viewBox="0 0 700.000000 700.000000"><path d="M309.2 38.5c-53.3 7.6-99.4 42.8-127 97-21.9 43.1-29.3 98.8-20.2 152.2 11.3 66.4 51.8 118.9 107.2 139.2 30.5 11.2 68.9 13.9 99.9 7.1 39.6-8.6 75-33.2 95.7-66.5l3.2-5V382c0 46.3-6.3 87.7-18.1 118.8-16.5 43.3-46 72.3-85.3 83.6-26.8 7.8-71.3 6.9-106.9-2-10.4-2.6-30.7-9.6-39.8-13.7l-5.6-2.5-4.2 19.5c-2.4 10.7-4.1 19.6-3.9 19.8 1 1 19.5 7.7 30.3 11 27.1 8.2 57.8 12.5 89.2 12.5 26.5 0 42.8-2.3 63.8-9 37.9-12.2 71.7-39.3 92.8-74.6 18.7-31.2 30.3-72.3 34.9-123.9 1.9-21.3 1.9-184.6 0-202.5-6.3-59.3-22.2-99.8-51-130.2-26.3-27.6-55.9-42.7-96.7-49.4-13.2-2.2-45.6-2.7-58.3-.9zm47.6 40c26.1 3.9 46.9 13.7 64.6 30.6 24.2 23 37.5 53.3 44.2 100.9 1.2 8.6 1.7 22.4 2.1 54.5l.5 43L463 318c-7.3 14.9-14.9 25.8-25.9 37.2-20.7 21.7-42.3 33.8-70.6 39.8-14.6 3.1-40.7 3.8-54 1.6-31.3-5.3-55.3-20.4-74.2-46.7-20.4-28.3-31.3-66-31.3-107.9 0-48.2 13.5-88.6 40.8-122.3 26.9-33.3 65.3-47.8 109-41.2z"/><path d="M321 95.7c-28.1 4.7-49.5 19.4-68.1 47.1-9.8 14.7-19.3 35.7-22.3 49.8l-.7 3.1 7.3.7c46.2 4.2 105 3.5 157.3-1.9 15.2-1.5 48.8-5.6 49.3-6 .6-.4-6.2-22.2-9-28.8-15.2-35.6-41.9-57.3-77.9-63.2-8.5-1.4-29.6-1.9-35.9-.8zM217.6 201.2c-1.8 2.5-2 4.6-.7 6.6.4.7 10.9 5.8 23.2 11.3 12.3 5.5 22.5 10.2 22.7 10.4.2.2-1.6 1.2-4 2.3-18 8.1-20.6 33.6-4.3 43.7 5.8 3.6 14.9 4.5 20.7 2.1 12.4-5.3 18.9-20.1 14.4-32.9l-1.4-3.7 3.4.6c6.1 1.1 10-5.4 5.6-9.2-2.7-2.3-73.3-33.4-75.9-33.4-1.2 0-2.9 1-3.7 2.2zm55.1 41.3c3.5 1 6.6 6.2 6.6 10.9 0 6-2.7 10.4-7.7 12.7-12.4 5.4-22-9.4-13-20.1 2.5-2.9 7.5-5.1 10.4-4.5.8.2 2.5.6 3.7 1zM357 215.1c-20.6 8.9-38 16.6-38.6 17.2-2.4 2.5-2.6 5.5-.4 7.7s5 2.3 9.2.5c1.6-.6 1.6-.2-.3 4-7.2 16.2 3.8 34.4 20.7 34.5 13.6 0 24.4-11.3 24.4-25.5 0-3.6-.8-7.6-1.9-10-2.2-5-8.6-10.9-13.6-12.5l-3.8-1.2 23.4-10c12.9-5.5 24-10.5 24.7-11 1.7-1.4 1.5-6.3-.4-8.2-.8-.9-2.5-1.6-3.7-1.6-1.2.1-19.1 7.3-39.7 16.1zm-3.3 27.4c3.5 1 6.6 6.2 6.6 10.9 0 8.1-5.4 13.8-13.1 13.8-9.8 0-14.5-12.9-7.6-21.2 2.5-2.9 7.5-5.1 10.4-4.5.8.2 2.5.6 3.7 1zM437.7 281.1C373.3 299.7 310.1 304.4 263 294c-7.9-1.7-27.8-7.6-32.9-9.7-1.7-.7-1 2.6 3.1 15.7 8.3 26 23.6 49 41.9 62.8 7.1 5.4 20.2 11.5 30.9 14.4 7.6 2 10.7 2.3 28.5 2.3 25.1 0 38.1-2.6 55.7-10.9 21.5-10.2 43.9-32.4 55.2-55l4.6-9.1v-13.3c0-9.9-.3-13.2-1.2-13.1-.7.1-5.7 1.4-11.1 3z"/></svg>