<?xml version="1.0" standalone="no"?>
<!DOCTYPE svg PUBLIC "-//W3C//DTD SVG 20010904//EN"
 "http://www.w3.org/TR/2001/REC-SVG-20010904/DTD/svg10.dtd">
<svg version="1.0" xmlns="http://www.w3.org/2000/svg"
 width="700.000000pt" height="700.000000pt" viewBox="0 0 700.000000 700.000000"
 preserveAspectRatio="xMidYMid meet">
<metadata>
Created by potrace 1.11, written by Peter Selinger 2001-2013
</metadata>
<g transform="translate(0.000000,700.000000) scale(0.100000,-0.100000)"
fill="#000000" stroke="none">
<path d="M3092 6615 c-533 -76 -994 -428 -1270 -970 -219 -431 -293 -988 -202
-1522 113 -664 518 -1189 1072 -1392 305 -112 689 -139 999 -71 396 86 750
332 957 665 l32 50 0 -195 c0 -463 -63 -877 -181 -1188 -165 -433 -460 -723
-853 -836 -268 -78 -713 -69 -1069 20 -104 26 -307 96 -398 137 l-56 25 -42
-195 c-24 -107 -41 -196 -39 -198 10 -10 195 -77 303 -110 271 -82 578 -125
892 -125 265 0 428 23 638 90 379 122 717 393 928 746 187 312 303 723 349
1239 19 213 19 1846 0 2025 -63 593 -222 998 -510 1302 -263 276 -559 427
-967 494 -132 22 -456 27 -583 9z m476 -400 c261 -39 469 -137 646 -306 242
-230 375 -533 442 -1009 12 -86 17 -224 21 -545 l5 -430 -52 -105 c-73 -149
-149 -258 -259 -372 -207 -217 -423 -338 -706 -398 -146 -31 -407 -38 -540
-16 -313 53 -553 204 -742 467 -204 283 -313 660 -313 1079 0 482 135 886 408
1223 269 333 653 478 1090 412z"/>
<path d="M3210 6043 c-281 -47 -495 -194 -681 -471 -98 -147 -193 -357 -223
-498 l-7 -31 73 -7 c462 -42 1050 -35 1573 19 152 15 488 56 493 60 6 4 -62
222 -90 288 -152 356 -419 573 -779 632 -85 14 -296 19 -359 8z"/>
<path d="M2321 4831 c-23 -23 -26 -43 -11 -71 6 -10 60 -38 129 -65 l120 -48
-24 -32 c-123 -161 -24 -371 166 -353 100 10 177 91 186 197 5 51 9 61 24 61
25 0 50 40 42 68 -3 13 -18 29 -32 37 -38 19 -524 213 -554 220 -18 5 -31 1
-46 -14z"/>
<path d="M3630 4843 c-90 -33 -519 -219 -532 -230 -35 -31 -12 -93 34 -93 17
0 19 -4 13 -30 -10 -46 19 -130 57 -167 88 -85 209 -82 296 8 40 41 67 125 57
177 -8 43 -37 103 -59 121 -9 8 -16 17 -16 20 0 4 43 25 96 46 125 51 159 90
114 135 -20 20 -33 23 -60 13z"/>
<path d="M4377 4189 c-644 -186 -1276 -233 -1747 -129 -79 17 -278 76 -329 97
-17 7 -10 -26 31 -157 83 -260 236 -490 419 -628 71 -54 202 -115 309 -144 76
-20 107 -23 285 -23 251 0 381 26 557 109 215 102 439 324 552 550 l46 91 0
133 c0 99 -3 132 -12 131 -7 -1 -57 -14 -111 -30z"/>
</g>
</svg>
