<?xml version="1.0" standalone="no"?>
<!DOCTYPE svg PUBLIC "-//W3C//DTD SVG 20010904//EN"
 "http://www.w3.org/TR/2001/REC-SVG-20010904/DTD/svg10.dtd">
<svg version="1.0" xmlns="http://www.w3.org/2000/svg"
 width="864.000000pt" height="864.000000pt" viewBox="0 0 864.000000 864.000000"
 preserveAspectRatio="xMidYMid meet">
<metadata>
Created by potrace 1.14, written by Peter Selinger 2001-2017
</metadata>
<g transform="translate(0.000000,864.000000) scale(0.100000,-0.100000)"
fill="#000000" stroke="none">
<path d="M4080 8394 c-563 -52 -1021 -270 -1411 -670 -541 -558 -819 -1287
-819 -2154 0 -821 247 -1507 723 -2006 350 -368 769 -582 1292 -660 143 -22
507 -30 646 -14 482 53 912 250 1243 570 132 128 211 222 298 354 l58 88 0
-273 c-1 -1113 -230 -1873 -709 -2349 -284 -282 -619 -435 -1056 -481 -69 -7
-191 -9 -330 -6 -494 13 -887 94 -1293 268 -67 28 -124 50 -125 48 -7 -9 -118
-531 -114 -535 11 -11 207 -86 334 -128 415 -135 832 -199 1308 -200 281 0
400 10 616 54 693 141 1276 583 1615 1225 222 420 351 923 415 1615 16 179 24
2238 10 2515 -57 1059 -358 1772 -947 2241 -331 264 -708 417 -1179 479 -116
15 -483 27 -575 19z m560 -578 c360 -68 631 -206 866 -444 281 -283 465 -678
548 -1182 45 -271 48 -329 53 -930 l5 -586 -44 -99 c-108 -245 -283 -487 -484
-666 -277 -249 -557 -385 -929 -452 -103 -18 -158 -21 -390 -22 -227 0 -284 3
-355 19 -337 73 -621 238 -838 486 -269 307 -445 714 -518 1194 -21 140 -30
571 -15 733 51 541 228 993 539 1380 260 322 580 514 967 579 109 18 479 12
595 -10z"/>
<path d="M4140 7595 c-8 -2 -49 -9 -90 -15 -153 -25 -336 -99 -468 -189 -261
-178 -504 -502 -645 -861 -51 -127 -104 -306 -95 -316 9 -8 252 -31 472 -43
227 -14 854 -14 1101 -1 359 20 793 61 1274 122 l93 11 -6 38 c-11 68 -76 271
-122 379 -139 331 -386 600 -679 739 -196 94 -367 130 -630 136 -104 2 -197 2
-205 0z"/>
<path d="M2877 5902 c-19 -21 -21 -45 -7 -72 6 -11 76 -44 180 -86 l170 -68
-41 -40 c-62 -61 -93 -135 -93 -221 1 -112 50 -198 143 -249 109 -59 230 -42
324 44 69 63 99 129 101 221 1 63 3 67 28 77 15 5 33 22 39 36 24 52 8 61
-400 224 -210 83 -392 152 -405 152 -12 0 -30 -8 -39 -18z m548 -356 c42 -18
65 -61 65 -120 0 -36 -6 -52 -30 -80 -84 -95 -210 -52 -210 72 0 55 22 94 69
121 43 24 60 26 106 7z"/>
<path d="M4355 5785 c-422 -178 -414 -174 -422 -203 -8 -35 12 -72 45 -78 28
-6 28 -7 24 -64 -7 -91 19 -162 81 -224 83 -83 184 -106 290 -66 70 26 125 75
162 141 27 49 30 63 30 144 0 104 -12 134 -82 206 l-44 46 151 63 c85 35 155
71 160 81 23 43 -3 89 -51 89 -13 0 -168 -61 -344 -135z m20 -265 c26 -26 30
-38 30 -84 0 -65 -23 -102 -80 -130 -35 -17 -42 -18 -78 -5 -55 19 -82 58 -82
119 0 118 130 180 210 100z"/>
<path d="M5800 5064 c-96 -30 -526 -135 -695 -169 -402 -80 -683 -109 -1050
-110 -356 0 -576 25 -858 96 -115 29 -313 92 -350 111 -10 5 -20 8 -23 6 -7
-7 54 -224 91 -324 96 -257 284 -546 447 -685 174 -149 325 -228 540 -285 89
-23 129 -27 295 -31 537 -14 915 120 1254 444 170 163 304 349 389 538 30 66
30 68 30 246 0 198 5 187 -70 163z"/>
</g>
</svg>
