<?xml version="1.0" standalone="no"?>
<!DOCTYPE svg PUBLIC "-//W3C//DTD SVG 20010904//EN"
 "http://www.w3.org/TR/2001/REC-SVG-20010904/DTD/svg10.dtd">
<svg version="1.0" xmlns="http://www.w3.org/2000/svg"
 width="938.000000pt" height="938.000000pt" viewBox="0 0 938.000000 938.000000"
 preserveAspectRatio="xMidYMid meet">
<metadata>
Created by potrace 1.14, written by Peter Selinger 2001-2017
</metadata>
<g transform="translate(0.000000,938.000000) scale(0.100000,-0.100000)"
fill="#000000" stroke="none">
<path d="M4390 9244 c-14 -2 -65 -9 -115 -15 -717 -88 -1350 -495 -1818 -1171
-217 -313 -376 -675 -472 -1072 -84 -344 -109 -602 -102 -1021 7 -383 34 -601
112 -900 254 -976 909 -1693 1788 -1959 238 -72 459 -105 757 -113 232 -6 387
3 550 33 519 94 997 348 1334 706 l88 92 -6 -69 c-3 -39 -8 -131 -11 -205 -17
-393 -95 -855 -200 -1179 -214 -661 -623 -1110 -1170 -1284 -218 -69 -372 -90
-675 -89 -611 0 -1140 121 -1642 373 -32 16 -63 29 -70 29 -9 0 -43 -136 -107
-426 -76 -349 -91 -428 -80 -435 28 -18 238 -103 359 -146 473 -168 938 -249
1487 -260 361 -7 560 10 841 73 378 84 773 274 1082 520 112 89 316 295 412
415 442 553 693 1316 763 2319 22 315 22 2572 0 2847 -26 331 -67 584 -135
850 -151 583 -388 1008 -763 1370 -421 405 -957 642 -1595 707 -136 14 -538
20 -612 10z m471 -874 c417 -41 732 -178 999 -436 282 -273 458 -622 560
-1109 69 -332 90 -627 90 -1275 l0 -445 -69 -140 c-113 -232 -242 -408 -428
-587 -312 -298 -674 -462 -1132 -509 -167 -17 -488 -6 -616 21 -310 66 -532
185 -750 405 -392 393 -603 941 -630 1640 -28 712 170 1356 569 1851 145 181
369 362 552 449 248 118 547 165 855 135z"/>
<path d="M4496 8249 c-182 -19 -387 -89 -549 -186 -326 -196 -627 -597 -787
-1050 -43 -121 -81 -266 -72 -274 9 -8 336 -37 567 -49 235 -13 793 -13 1065
0 391 18 810 55 1265 111 334 41 308 34 300 78 -16 83 -79 281 -127 398 -91
221 -204 391 -372 558 -248 246 -554 380 -946 415 -131 11 -230 11 -344 -1z"/>
<path d="M3111 6399 c-11 -29 -21 -57 -21 -64 0 -7 81 -45 183 -85 100 -40
190 -77 199 -82 15 -7 12 -14 -25 -51 -70 -70 -92 -125 -92 -237 0 -84 3 -101
27 -146 101 -192 353 -223 503 -63 64 69 88 127 89 220 1 76 1 76 24 68 13 -5
25 -9 26 -9 10 0 47 122 40 130 -11 10 -906 370 -921 370 -6 0 -20 -23 -32
-51z m613 -384 c87 -41 88 -184 2 -240 -41 -27 -96 -29 -134 -5 -86 53 -74
191 20 242 41 21 71 22 112 3z"/>
<path d="M4695 6269 c-236 -100 -434 -185 -439 -190 -10 -9 33 -129 47 -129 5
0 16 4 26 9 16 9 17 3 17 -72 -1 -97 27 -170 88 -230 65 -66 108 -82 216 -82
112 0 155 18 231 96 60 62 89 135 89 228 0 95 -23 154 -85 219 l-53 54 42 17
c22 10 103 44 179 76 75 31 139 60 141 64 7 11 -42 116 -56 118 -7 2 -206 -79
-443 -178z m33 -259 c34 -21 62 -72 62 -113 0 -40 -43 -109 -80 -129 -84 -45
-180 14 -180 110 0 60 30 109 80 134 46 23 77 23 118 -2z"/>
<path d="M6325 5509 c-16 -5 -142 -39 -280 -74 -655 -167 -1127 -235 -1640
-236 -469 0 -848 60 -1219 192 -60 21 -113 39 -116 39 -4 0 1 -37 12 -82 54
-233 175 -513 305 -708 236 -352 516 -547 907 -632 89 -20 130 -23 346 -22
211 0 263 3 374 23 297 53 523 147 738 307 245 182 441 419 579 699 l59 119 0
193 c0 213 4 203 -65 182z"/>
</g>
</svg>
